<svg width="768" height="1024" fill="none" xmlns="http://www.w3.org/2000/svg"><g clip-path="url(#clip0_22728_11881)" fill-rule="evenodd" clip-rule="evenodd"><path d="M251.136 435.744h239.621c68.836 0 126.284 29.365 162.004 78.985 35.694 49.624 36.795 132.423 15.98 197.198l-26.612 82.696C631.016 829.152 578.978 992.451 568.83 1024H438.106s1.999 1.75 111.201-337.703c9.642-29.956 15.147-78.581 0-99.61-15.121-21.027-40.636-33.471-74.395-33.471H279.041c-38.46 0-72.542 25.014-84.44 61.959l56.535-179.431z" fill="url(#paint0_linear_22728_11881)"/><path d="M64.32 1024H-63.474C45.293 682.464 155.294 341.33 264.703 0h127.619a836.323 836.323 0 01-1.636 5.135C213.654 549.846 274.042 365.893 64.32 1024z" fill="#F0145A"/></g><defs><linearGradient id="paint0_linear_22728_11881" x1="605.77" y1="1024" x2="281.114" y2="662.198" gradientUnits="userSpaceOnUse"><stop stop-color="#F0145A"/><stop offset="1" stop-color="#693264"/></linearGradient><clipPath id="clip0_22728_11881"><path fill="#fff" transform="translate(-63)" d="M0 0h893.277v1024H0z"/></clipPath></defs></svg>